<?xml version="1.0" standalone="no"?>
<!DOCTYPE svg PUBLIC "-//W3C//DTD SVG 20010904//EN"
 "http://www.w3.org/TR/2001/REC-SVG-20010904/DTD/svg10.dtd">
<svg version="1.0" xmlns="http://www.w3.org/2000/svg"
 width="383.000000pt" height="132.000000pt" viewBox="0 0 383.000000 132.000000"
 preserveAspectRatio="xMidYMid meet">
<metadata>
Created by potrace 1.16, written by Peter Selinger 2001-2019
</metadata>
<g transform="translate(0.000000,132.000000) scale(0.100000,-0.100000)"
fill="#000000" stroke="none">
<path d="M2080 1035 c-151 -43 -263 -169 -290 -327 -44 -251 185 -494 437
-464 223 26 374 207 361 431 -13 203 -172 360 -374 371 -52 3 -98 -1 -134 -11z
m183 -158 c45 -19 105 -89 113 -132 16 -87 -22 -184 -118 -299 -33 -39 -64
-72 -68 -74 -13 -5 -126 138 -157 197 -67 133 -30 263 88 310 35 14 105 13
142 -2z"/>
<path d="M2114 776 c-27 -27 -34 -42 -34 -74 0 -75 67 -125 141 -103 68 20 97
98 59 159 -39 62 -114 70 -166 18z"/>
<path d="M3080 1035 c-152 -43 -261 -165 -291 -327 -22 -122 24 -259 118 -349
199 -192 518 -138 639 107 130 262 -45 565 -334 580 -50 3 -96 -1 -132 -11z
m272 -48 c75 -36 159 -127 189 -204 31 -80 31 -196 0 -275 -31 -80 -106 -159
-189 -200 -62 -31 -74 -33 -167 -33 -90 0 -106 3 -158 28 -126 62 -207 182
-215 318 -10 169 77 309 235 375 51 22 70 24 153 21 78 -3 105 -8 152 -30z"/>
<path d="M3126 876 c-49 -19 -102 -70 -117 -114 -28 -85 21 -216 122 -325 l57
-62 32 30 c50 48 128 171 146 232 18 63 13 111 -18 161 -44 72 -143 107 -222
78z m141 -101 c33 -33 35 -39 30 -82 -10 -90 -104 -134 -172 -81 -89 70 -49
198 62 198 38 0 50 -5 80 -35z"/>
<path d="M414 1014 c-60 -21 -119 -77 -151 -142 -69 -140 -13 -312 169 -521
40 -47 78 -86 84 -88 16 -5 149 152 203 239 90 148 108 271 55 375 -33 64
-101 123 -164 142 -51 15 -146 13 -196 -5z m159 -128 c97 -41 124 -156 53
-230 -75 -80 -200 -59 -242 41 -19 44 -18 69 7 120 34 71 110 100 182 69z"/>
<path d="M1214 1009 c-58 -17 -128 -72 -161 -128 -56 -94 -54 -198 7 -327 36
-75 129 -202 195 -264 l47 -45 59 65 c239 260 285 496 125 637 -74 65 -179 89
-272 62z m203 -45 c93 -45 151 -147 140 -249 -11 -106 -87 -245 -203 -374
l-58 -63 -38 43 c-80 90 -140 176 -176 248 -31 63 -38 88 -40 151 -5 92 18
149 79 205 86 78 187 91 296 39z"/>
<path d="M1225 894 c-69 -36 -95 -79 -95 -157 0 -60 23 -104 73 -141 22 -16
43 -21 96 -21 58 0 73 4 103 27 70 54 86 160 36 234 -44 65 -146 93 -213 58z
m132 -24 c56 -25 83 -70 83 -137 0 -41 -5 -58 -27 -84 -51 -60 -119 -74 -185
-37 -91 51 -103 164 -25 236 45 43 94 50 154 22z"/>
</g>
</svg>
