<?xml version="1.0" standalone="no"?>
<!DOCTYPE svg PUBLIC "-//W3C//DTD SVG 20010904//EN"
 "http://www.w3.org/TR/2001/REC-SVG-20010904/DTD/svg10.dtd">
<svg version="1.0" xmlns="http://www.w3.org/2000/svg"
 width="500.000000pt" height="500.000000pt" viewBox="0 0 500.000000 500.000000"
 preserveAspectRatio="xMidYMid meet">

<g transform="translate(0.000000,500.000000) scale(0.100000,-0.100000)"
fill="#000000" stroke="none">
<path d="M2469 3900 c-9 -5 -63 -90 -120 -189 l-104 -181 -425 0 -425 0 -55
-26 c-68 -31 -114 -74 -148 -139 l-27 -50 -3 -987 c-2 -975 -2 -987 18 -1041
26 -70 85 -131 158 -165 l57 -26 1095 0 c806 0 1106 3 1136 12 100 29 183 116
204 215 8 37 10 338 8 1022 l-3 970 -27 51 c-35 66 -92 117 -162 143 -54 20
-73 21 -474 21 l-417 0 -104 181 c-116 199 -133 217 -182 189z m114 -323 c42
-72 81 -139 87 -147 8 -13 75 -16 467 -20 456 -5 458 -5 495 -28 20 -13 47
-40 60 -60 l23 -37 3 -950 c2 -657 0 -961 -8 -987 -14 -48 -55 -97 -97 -114
-21 -9 -74 -14 -152 -14 l-120 0 -3 278 -3 277 -32 67 c-53 112 -146 196 -259
232 -45 15 -110 16 -570 14 l-519 -3 -65 -31 c-81 -39 -145 -96 -187 -165 -55
-93 -63 -144 -63 -421 l0 -248 -112 0 c-130 0 -163 11 -212 73 l-31 39 -3 965
c-2 934 -2 966 17 1008 13 29 34 53 62 72 l43 28 458 5 c393 4 460 7 468 20 6
8 45 75 87 148 43 72 80 132 83 132 3 0 40 -60 83 -133z m452 -1635 c65 -30
128 -92 157 -156 22 -48 23 -65 26 -308 l3 -258 -725 0 -726 0 0 258 c0 248 1
259 24 307 43 92 105 147 196 172 33 9 165 12 520 10 472 -2 475 -2 525 -25z"/>
<path d="M2405 3150 c-267 -54 -445 -299 -407 -562 24 -165 126 -304 278 -380
79 -39 91 -42 188 -46 86 -4 116 -1 174 17 130 39 241 133 301 256 38 76 50
132 51 220 0 142 -46 252 -150 355 -118 117 -283 170 -435 140z m237 -153
c113 -51 196 -157 218 -279 29 -155 -60 -328 -205 -398 -185 -90 -410 -10
-503 179 -24 50 -27 67 -27 156 0 90 3 106 29 160 49 100 146 179 250 206 61
16 177 4 238 -24z"/>
</g>
</svg>
